<svg width="29" height="29" viewBox="0 0 29 29" fill="none" xmlns="http://www.w3.org/2000/svg">
<path d="M0.55475 13.7329L4.71528 12.5414C6.58887 12.012 8.29557 11.0096 9.67204 9.63019C11.0485 8.25073 12.0487 6.54034 12.5769 4.66269L13.7659 0.493151C13.8257 0.347273 13.9274 0.222502 14.0581 0.134693C14.1888 0.0468833 14.3426 0 14.5 0C14.6574 0 14.8112 0.0468833 14.9419 0.134693C15.0726 0.222502 15.1743 0.347273 15.2341 0.493151L16.4231 4.66269C16.9513 6.54034 17.9515 8.25073 19.328 9.63019C20.7044 11.0096 22.4111 12.012 24.2847 12.5414L28.4452 13.7329C28.605 13.7783 28.7456 13.8748 28.8457 14.0075C28.9458 14.1403 29 14.3022 29 14.4686C29 14.635 28.9458 14.7969 28.8457 14.9297C28.7456 15.0624 28.605 15.1589 28.4452 15.2043L24.2847 16.3958C22.4111 16.9252 20.7044 17.9276 19.328 19.307C17.9515 20.6865 16.9513 22.3969 16.4231 24.2745L15.2341 28.444C15.1888 28.6041 15.0926 28.7451 14.9601 28.8454C14.8276 28.9457 14.6661 29 14.5 29C14.3339 29 14.1724 28.9457 14.0399 28.8454C13.9074 28.7451 13.8112 28.6041 13.7659 28.444L12.5769 24.2745C12.0487 22.3969 11.0485 20.6865 9.67204 19.307C8.29557 17.9276 6.58887 16.9252 4.71528 16.3958L0.55475 15.2043C0.395 15.1589 0.2544 15.0624 0.154284 14.9297C0.0541668 14.7969 0 14.635 0 14.4686C0 14.3022 0.0541668 14.1403 0.154284 14.0075C0.2544 13.8748 0.395 13.7783 0.55475 13.7329Z" fill="white"/>
</svg>
