<svg width="920" height="654" viewBox="0 0 920 654" fill="none" xmlns="http://www.w3.org/2000/svg">
<mask id="mask0_75_1278" style="mask-type:alpha" maskUnits="userSpaceOnUse" x="0" y="0" width="920" height="654">
<rect width="920" height="654" rx="16" fill="#E61F7F"/>
</mask>
<g mask="url(#mask0_75_1278)">
<path fill-rule="evenodd" clip-rule="evenodd" d="M637.845 -39.831C755.525 -6.60973 785.462 147.114 883.192 220.578C978.14 291.951 1159.93 263.748 1193.31 377.711C1226.99 492.72 1070.03 573.565 1018.22 681.633C976.458 768.734 995.345 885.85 920.436 946.865C844.656 1008.59 730.084 1023.81 637.845 991.453C553.021 961.695 524.878 860.12 470.093 788.88C433.673 741.52 405.43 693.659 371.19 644.702C317.222 567.54 228.283 512.512 211.954 419.791C189.591 292.801 178.148 140.892 265.807 46.2899C354.474 -49.3991 512.269 -75.281 637.845 -39.831Z" fill="#FBE8A5"/>
</g>
</svg>
